<?xml version="1.0" encoding="utf-8"?>
<!-- Generator: Adobe Illustrator 15.1.0, SVG Export Plug-In . SVG Version: 6.00 Build 0)  -->
<!DOCTYPE svg PUBLIC "-//W3C//DTD SVG 1.1//EN" "http://www.w3.org/Graphics/SVG/1.1/DTD/svg11.dtd">
<svg version="1.1" id="Layer_1" xmlns="http://www.w3.org/2000/svg" xmlns:xlink="http://www.w3.org/1999/xlink" x="0px" y="0px"
	 width="146.165px" height="146.25px" viewBox="34.875 34.875 146.165 146.25"
	 enable-background="new 34.875 34.875 146.165 146.25" xml:space="preserve">
<path fill="#33A8DA" d="M181.041,163.125c0,9.941-8.059,18-18,18H52.874c-9.941,0-18-8.059-18-18V52.875c0-9.941,8.059-18,18-18
	h110.167c9.941,0,18,8.059,18,18V163.125z"/>
<g id="XMLID_1_">
	<path id="XMLID_6_" d="M108,129.375c-9.45,0-16.875-7.65-16.875-16.875c0-9.45,7.65-16.875,16.875-16.875
		c9.45,0,16.875,7.65,16.875,16.875C124.875,121.95,117.45,129.375,108,129.375 M108,62.325c-27.675,0-50.175,22.725-50.175,50.175
		c0,27.675,22.725,50.175,50.175,50.175c8.1,0,15.975-1.8,23.175-5.399c2.25-1.125,3.15-3.825,2.025-6.075
		c-0.9-1.575-2.476-2.476-4.05-2.476c-0.676,0-1.351,0.226-2.025,0.45c-5.85,2.925-12.15,4.5-18.675,4.5
		c-22.95,0-41.4-18.45-41.4-41.175c0-22.725,18.45-41.175,41.175-41.175S149.4,90,149.4,112.5c0,6.75-1.801,13.725-4.95,19.575
		c-4.05-3.15-10.125-9.675-10.125-19.351V92.7c0-2.475-2.025-4.5-4.5-4.5c-2.476,0-4.5,2.025-4.5,4.5v0.225
		c-4.5-3.825-10.575-6.3-16.875-6.3c-14.4,0-26.1,11.7-26.1,26.1c0,14.4,11.475,26.101,25.875,26.101
		c8.55,0,15.975-4.05,20.7-10.575c5.175,9.675,14.175,14.4,14.625,14.625c0.675,0.45,1.351,0.45,2.25,0.45
		c1.351,0,2.925-0.675,3.825-2.025c5.85-8.55,9-18.225,9-28.8C158.175,84.825,135.675,62.325,108,62.325"/>
	<path id="XMLID_7_" fill="#FFFFFF" d="M108,158.175c-27.675,0-50.175-22.725-50.175-50.175c0-27.675,22.725-50.175,50.175-50.175
		s50.175,22.5,50.175,50.175c0,10.35-3.149,20.25-9,28.8c-1.35,1.8-3.825,2.476-5.85,1.351c-0.675-0.45-18.45-9.676-18.45-29.925
		V88.2c0-2.475,2.025-4.5,4.5-4.5s4.5,2.025,4.5,4.5v20.025c0,9.9,5.85,16.2,10.125,19.35c3.15-5.851,4.95-12.825,4.95-19.575
		c0-22.725-18.45-41.175-41.175-41.175S66.825,85.275,66.825,108c0,22.725,18.45,41.175,41.175,41.175
		c6.525,0,13.05-1.575,18.675-4.5c2.25-1.125,4.95-0.225,6.075,2.025s0.225,4.95-2.025,6.075
		C123.975,156.375,116.1,158.175,108,158.175z"/>
	<path id="XMLID_10_" fill="#FFFFFF" d="M108,91.125c9.45,0,16.875,7.65,16.875,16.875c0,9.45-7.65,16.875-16.875,16.875
		c-9.225,0-16.875-7.65-16.875-16.875C91.125,98.55,98.55,91.125,108,91.125 M108,81.9c-14.4,0-26.1,11.7-26.1,26.1
		c0,14.4,11.7,26.1,26.1,26.1c14.4,0,26.1-11.699,26.1-26.1C134.1,93.6,122.4,81.9,108,81.9z"/>
</g>
<path fill="none" d="M117.001,199.55c0,3.977-3.224,7.2-7.2,7.2H-21.966c-3.977,0-7.2-3.224-7.2-7.2V67.7c0-3.977,3.224-7.2,7.2-7.2
	h131.767c3.977,0,7.2,3.224,7.2,7.2V199.55z"/>
</svg>
