<?xml version="1.0" encoding="utf-8"?>
<!-- Generator: Adobe Illustrator 15.1.0, SVG Export Plug-In . SVG Version: 6.00 Build 0)  -->
<!DOCTYPE svg PUBLIC "-//W3C//DTD SVG 1.1//EN" "http://www.w3.org/Graphics/SVG/1.1/DTD/svg11.dtd">
<svg version="1.1" id="Layer_1" xmlns="http://www.w3.org/2000/svg" xmlns:xlink="http://www.w3.org/1999/xlink" x="0px" y="0px"
	 width="146.165px" height="146.25px" viewBox="0 0 146.165 146.25" enable-background="new 0 0 146.165 146.25"
	 xml:space="preserve">
<path fill="#33A8DA" d="M146.167,128.25c0,9.941-8.06,18-18,18H17.999c-9.941,0-18-8.059-18-18V18c0-9.941,8.059-18,18-18h110.167
	c9.94,0,18,8.059,18,18V128.25z"/>
<path id="XMLID_4_" fill="#FFFFFF" d="M59.508,125.247c0-1.292,0-4.849,0-9.696c-15.191,3.232-18.423-7.433-18.423-7.433
	c-2.584-6.464-6.139-8.08-6.139-8.08c-4.848-3.555,0.322-3.555,0.322-3.555c5.494,0.323,8.404,5.817,8.404,5.817
	c4.847,8.727,12.927,6.142,15.835,4.525c0.646-3.557,1.94-6.141,3.556-7.435c-12.282-1.292-24.886-6.14-24.886-27.794
	c0-6.142,2.263-10.989,5.495-15.19c-0.647-1.292-2.587-7.11,0.645-14.866c0,0,4.525-1.616,15.191,5.816
	c4.201-1.293,9.049-1.938,13.574-1.938c4.526,0,9.374,0.646,13.573,1.938c10.346-7.11,14.867-5.816,14.867-5.816
	c2.91,7.755,0.971,13.574,0.648,14.866c3.555,3.879,5.493,9.049,5.493,15.19c0,21.654-12.929,26.178-24.885,27.794
	c1.938,1.616,3.555,5.172,3.555,10.343c0,7.433,0,13.574,0,15.513c0,1.616,0.97,3.231,3.876,2.587
	c21.656-7.436,37.493-28.442,37.493-53.327c0-31.027-24.564-56.235-54.621-56.235S18.462,43.479,18.462,74.507
	c0,24.885,15.514,45.892,37.491,53.327C58.539,128.479,59.508,126.54,59.508,125.247z"/>
</svg>
