<?xml version="1.0" encoding="utf-8"?>
<!-- Generator: Adobe Illustrator 15.1.0, SVG Export Plug-In . SVG Version: 6.00 Build 0)  -->
<!DOCTYPE svg PUBLIC "-//W3C//DTD SVG 1.1//EN" "http://www.w3.org/Graphics/SVG/1.1/DTD/svg11.dtd">
<svg version="1.1" id="Layer_1" xmlns="http://www.w3.org/2000/svg" xmlns:xlink="http://www.w3.org/1999/xlink" x="0px" y="0px"
	 width="146.165px" height="146.25px" viewBox="0 0 146.165 146.25" enable-background="new 0 0 146.165 146.25"
	 xml:space="preserve">
<path fill="#33A8DA" d="M146.167,128.25c0,9.941-8.06,18-18,18H17.999c-9.941,0-18-8.059-18-18V18c0-9.941,8.059-18,18-18h110.167
	c9.94,0,18,8.059,18,18V128.25z"/>
<path id="XMLID_7_" fill="#FFFFFF" d="M47.297,116.359V59.165H29.594v57.194H47.297z M47.297,39.077
	c0-5.106-3.403-8.852-9.192-8.852c-5.447,0-9.191,3.745-9.191,8.852c0,5.106,3.404,8.853,8.851,8.853l0,0
	C43.551,47.93,47.297,43.846,47.297,39.077z M75.895,116.359V83.675c0-1.7,0-3.403,0.682-4.766c1.361-3.404,4.426-7.15,9.873-7.15
	c7.148,0,11.235,4.085,11.235,11.916v32.685h17.703V82.996c0-18.045-9.532-26.215-22.132-26.215c-10.553,0-14.978,5.787-17.7,9.873
	v-7.489H57.852c0.339,5.446,0,57.535,0,57.535h18.042L75.895,116.359L75.895,116.359z"/>
</svg>
