<?xml version="1.0" encoding="utf-8"?>
<!-- Generator: Adobe Illustrator 15.1.0, SVG Export Plug-In . SVG Version: 6.00 Build 0)  -->
<!DOCTYPE svg PUBLIC "-//W3C//DTD SVG 1.1//EN" "http://www.w3.org/Graphics/SVG/1.1/DTD/svg11.dtd">
<svg version="1.1" id="Layer_1" xmlns="http://www.w3.org/2000/svg" xmlns:xlink="http://www.w3.org/1999/xlink" x="0px" y="0px"
	 width="146.165px" height="146.25px" viewBox="34.875 34.875 146.165 146.25"
	 enable-background="new 34.875 34.875 146.165 146.25" xml:space="preserve">
<path fill="#33A8DA" d="M181.041,163.125c0,9.941-8.059,18-18,18H52.874c-9.941,0-18-8.059-18-18V52.875c0-9.941,8.059-18,18-18
	h110.167c9.941,0,18,8.059,18,18V163.125z"/>
<g id="XMLID_1_">
	<path id="XMLID_4_" d="M75.879,55.474c-20.055,3.399-22.774,14.957-23.114,15.637c0,0.68,0,1.359,0,2.039
		c23.793,73.76,73.08,87.356,89.396,91.776c1.36,0.338,2.38,0.68,3.06,1.02c0.339,0,0.68,0.34,1.02,0.34c0.68,0,1.02,0,1.699-0.34
		c0.341-0.34,12.237-5.779,15.296-23.795c0-0.68,0-1.699-0.339-2.379c-0.341-0.34-6.459-12.236-23.454-16.316
		c-0.34,0-0.681,0-1.02,0c-1.02,0-1.7,0.342-2.72,0.682c-5.439,4.418-12.916,9.178-15.976,9.857
		c-21.414-10.197-33.65-30.592-33.99-34.671c-0.341-2.04,4.418-9.517,10.197-15.976c0.68-0.68,1.019-2.039,1.019-3.06
		c-1.358-16.654-18.694-24.473-19.374-24.813C77.238,55.474,76.558,55.474,75.879,55.474"/>
	<path id="XMLID_5_" fill="#FFFFFF" d="M97.633,73.83c-1.36-16.655-18.695-24.474-19.375-24.813c-1.02-0.34-1.7-0.34-2.379-0.34
		c-20.055,3.399-22.774,14.957-23.114,15.636c0,0.681,0,1.359,0,2.04c23.793,73.759,73.08,87.357,89.396,91.775
		c1.36,0.34,2.38,0.68,3.06,1.02c0.339,0,0.68,0.34,1.02,0.34c0.68,0,1.02,0,1.699-0.34c0.341-0.34,12.237-5.779,15.296-23.793
		c0-0.682,0-1.701-0.339-2.381c-0.341-0.34-6.459-12.236-23.454-16.314c-1.02-0.34-2.38,0-3.399,0.68
		c-5.438,4.418-12.916,9.178-15.976,9.857c-21.414-10.197-33.65-30.591-33.99-34.67c-0.34-2.04,4.418-9.517,10.196-15.976
		C97.293,76.209,97.633,74.849,97.633,73.83z"/>
</g>
</svg>
