<?xml version="1.0" encoding="utf-8"?>
<!-- Generator: Adobe Illustrator 15.1.0, SVG Export Plug-In . SVG Version: 6.00 Build 0)  -->
<!DOCTYPE svg PUBLIC "-//W3C//DTD SVG 1.1//EN" "http://www.w3.org/Graphics/SVG/1.1/DTD/svg11.dtd">
<svg version="1.1" id="Layer_1" xmlns="http://www.w3.org/2000/svg" xmlns:xlink="http://www.w3.org/1999/xlink" x="0px" y="0px"
	 width="146.165px" height="146.25px" viewBox="34.875 34.875 146.165 146.25"
	 enable-background="new 34.875 34.875 146.165 146.25" xml:space="preserve">
<path fill="#33A8DA" d="M181.041,163.125c0,9.941-8.059,18-18,18H52.874c-9.941,0-18-8.059-18-18V52.875c0-9.941,8.059-18,18-18
	h110.167c9.941,0,18,8.059,18,18V163.125z"/>
<path fill="none" d="M117.001,199.55c0,3.977-3.224,7.2-7.2,7.2H-21.966c-3.977,0-7.2-3.224-7.2-7.2V67.7c0-3.977,3.224-7.2,7.2-7.2
	h131.767c3.977,0,7.2,3.224,7.2,7.2V199.55z"/>
<g>
	<path id="XMLID_3_" fill="#FFFFFF" d="M159.759,116.77L159.759,116.77c0.572-3.133,0.874-6.338,0.874-9.544
		c0-7.107-1.392-14.003-4.138-20.493c-2.652-6.27-6.447-11.899-11.284-16.734c-4.833-4.835-10.466-8.63-16.732-11.282
		c-6.49-2.745-13.386-4.137-20.491-4.137c-3.351,0-6.703,0.316-9.971,0.942c-0.006,0.001-0.015,0.001-0.023,0.003l0,0
		c-4.479-2.381-9.517-3.653-14.615-3.653c-8.323,0-16.153,3.241-22.04,9.13c-5.885,5.887-9.125,13.713-9.125,22.04
		c0,5.299,1.359,10.508,3.92,15.111l0,0c-0.521,2.981-0.795,6.03-0.795,9.073c0,7.106,1.395,14.001,4.142,20.493
		c2.648,6.273,6.447,11.901,11.278,16.732c4.835,4.835,10.463,8.636,16.736,11.281c6.49,2.751,13.388,4.143,20.493,4.143
		c3.094,0,6.195-0.281,9.222-0.818l0,0c4.662,2.638,9.94,4.041,15.33,4.041c8.327,0,16.148-3.24,22.035-9.128
		c5.888-5.884,9.128-13.712,9.128-22.036C163.702,126.615,162.333,121.389,159.759,116.77z"/>
	<path id="XMLID_2_" fill="#FFFFFF" d="M117.209,159.057"/>
	<path id="XMLID_1_" fill="#33A8DA" d="M108.197,139.469c-18.705,0-27.071-9.194-27.071-16.088c0-3.537,2.609-6.012,6.207-6.012
		c8.003,0,5.932,11.493,20.864,11.493c7.644,0,11.866-4.15,11.866-8.401c0-2.555-1.26-5.385-6.295-6.624l-16.635-4.155
		c-13.398-3.359-15.83-10.602-15.83-17.41c0-14.138,13.31-19.445,25.811-19.445c11.514,0,25.086,6.362,25.086,14.845
		c0,3.635-3.147,5.747-6.741,5.747c-6.831,0-5.574-9.455-19.332-9.455c-6.83,0-10.613,3.091-10.613,7.516
		c0,4.416,5.396,5.825,10.075,6.894l12.314,2.733c13.488,3.003,16.908,10.878,16.908,18.296
		C134.812,130.89,125.994,139.469,108.197,139.469z"/>
</g>
</svg>
